<?xml version="1.0" encoding="utf-8"?>
<!-- Generator: Adobe Illustrator 22.1.0, SVG Export Plug-In . SVG Version: 6.00 Build 0)  -->
<svg version="1.1" id="图层_1" xmlns="http://www.w3.org/2000/svg" xmlns:xlink="http://www.w3.org/1999/xlink" x="0px" y="0px"
	 viewBox="0 0 1000 1000" style="enable-background:new 0 0 1000 1000;" xml:space="preserve">
<g>
	<path d="M1000,767v233H0l0.1-58c3.5,0.2,7,0.6,10.5,0.7c41.2,0.9,82.3-0.6,123.4-3c14-0.8,25.8-5.8,37.3-13.6
		c25.1-17,49.1-35.6,73.1-54.1c13.1-10,26.5-19.6,40.4-28.6c1.1-0.7,3.8-1,2.3-3.5c-1.6-2.7-11.9-6.1-15.3-5.2
		c-14.9,3.9-28.8,1.5-41.5-7.1c-10.5-7.2-18.4-16.8-24.8-27.7c-1.8-3-3.5-6.1-6-8.6c-25.4-25.7-41.3-56.6-50.6-91.2
		c-0.9-3.2-2-6.3-3.7-9.2c-8.3-14.6-14.2-30.1-18.3-46.3c-0.3-1.3-0.2-2.9-1.6-4.2c-0.7,23.5-0.1,46.6,2.8,69.7
		c4,31.4,11.2,62,26.5,90.1c14.3,26.4,33.9,46.1,65.1,51c0.2,0,0.3,0.3,0.5,0.6c-7.8,0.1-20.1-3.6-28.9-8.8
		c-20.6-12.1-33.4-30.9-43-51.9c-21.2-46.4-26.1-95.8-25-146c0.2-9.2,0.2-18.3-1.1-27.3c-0.8-5.3-1.2-10.6-1.4-15.9
		c-1.6-37.4,3.3-74.1,13.3-110.2c1-3.5,1.4-6.8,0.7-10.3c-2.1-10.5-2.1-21.2-2-31.9c0-3.3,0.1-6.7-0.4-10c-3.8-25.3-1.6-50,8.1-73.6
		c16.1-39.2,40.6-72,74.6-97.7c8.7-6.6,16.8-14.5,22.2-24.1c5.8-10.3,11.7-20.5,19-29.9c3.3-4.2,7.1-7.9,9.8-12.6
		c5.1-8.8,11.6-16.7,18.8-23.9c26.4-26.6,57.5-45.7,93.1-57.5c4-1.3,5.3-2.8,4.6-7.4c-2.1-14.5-2.3-29.2-0.4-43.8
		c0.7-5.3,3.3-7.9,8.6-8.5c8.1-0.9,15.5,1.6,22.8,4.3c5,1.8,5.2,1.8,4.3-3.4c-2.7-16-2.9-32.2-3-48.3c0-1-0.4-2.2,0.8-2.6
		c1.1-0.4,1.8,0.7,2.4,1.4c2.5,2.9,5,5.9,7.6,8.9c0.7-7.3-0.8-14-0.6-20.7h314c1.1,3.1,2.3,6.3,3.2,9.5
		c6.7,23.2,13.3,46.4,19.9,69.7c1.1,4,3.1,7.2,6,10.2c9.9,10.3,20.8,19.1,33,26.5c1.2,0.7,3,0.9,2.9,3.5
		c-12.1-3.1-22.9-8.6-34.4-14.6c0.4,4.1,1.8,6.7,3.1,9.3c12.9,26.3,27,52.1,41,77.8c3.3,6,6.5,12,8.1,18.8c1.1,5.1,0.2,9.7-4,13.1
		c-4,3.2-8.1,2.6-11.9-0.4c-1.7-1.3-2.5-0.8-3.3,1c-4.5,9.3-2.7,18.6,0.8,27.5c7.8,20,26.9,26.2,43.8,35c0.8,0.4,2.2-0.1,2.2,1.4
		c0,1-0.9,1.7-1.2,2.5c-1,2.5-2.9,2.2-4.9,2.2c-6.3,0.3-11.9-2.4-18.9-4.1c11.4,21.3,24.1,40.7,36.7,60.3
		c-11.7-8.2-21.1-18.9-32.1-27.7c0.5,3,1.4,5.7,2.3,8.3c8.1,22.4,12.8,45.9,19.9,68.6c6.7,21.3,10.7,43.1,10.6,65.4
		c-0.1,25.1-5.1,49.3-14.6,72.6c-1.3,3.3-1.7,6.2-0.4,9.6c3.9,10.1,7.8,20.2,11,30.5c6.9,21.9,13.2,44.1,23.5,64.8
		c0.6,1.2,1.3,2.6,0,3.7c-1.5,1.2-2.8-0.1-4-0.9c-11.8-7.9-23-16.5-33.3-26.4c-1.2-1.1-2-3.1-4.3-2.8c-1.3,4.1-1,7.9,0.5,11.8
		c2.4,6.4,4.6,12.9,6.8,19.3c0.7,2.1,1.7,4.6-0.4,6c-3.8,2.6-1.8,4.6,0.1,6.8c11.8,13.3,25.6,23.8,43.3,28.2
		c4.8,1.2,5.4,3.7,2.1,7.4c-2.7,3-6.4,2.2-9.8,2.6c-1.6,0.2-3.9-0.8-4.4,1.2c-0.4,1.7,1.8,2.6,2.9,3.7c1.3,1.3,3,1.4,4.6,1.5
		c2.6,0.2,4.8,1.2,6.6,3.2c4.8,5.5,10.1,10.7,14.3,16.7c7.6,10.9,17.3,19.3,28.4,26.3c3.8,2.4,7.1,5.8,11.5,6.9
		C963.9,761,982,763.8,1000,767z M335.8,785.6c-0.1,0.6-0.2,1.1-0.2,1.7c0.2,0.3,0.3,0.7,0.5,0.8c14.4,5.1,29.1,6.4,44.2,4.4
		c2.2-0.3,3.2-1.4,2.9-4.2c-0.6-6.9,0.3-13.8,3.2-20.2c3.9-8.5,9.4-16.1,14.2-24.1c1.9-3.2,1.8-5.8-1.5-8.1
		c-3.4-2.4-6.6-5.1-9.8-7.7c-26.1-21-48-45.3-59-77.7c-0.7-2.1-2.1-3.7-3.8-5.2c-13.7-12.2-23.2-27.4-30.5-44
		c-3.5-8.1-6.4-16.4-9.3-24.7c1.7,9,3.6,17.9,5.7,26.8c9.3,38.4,23.3,74.6,48.9,105.6c13.5,16.4,29,29.3,50.2,34.2
		c1.6,0.4,3.5,0.5,5.4,3.3c-6.3-1.9-11.8,1-16.6-1.4c-9.5-4.8-19.4-9.1-27.8-15.7c-5.5-4.3-11.9-3.8-19.2-5.2
		c13.3,15.8,28.6,26.9,46.4,34.9c-2.4,1-4.3,0.1-6.2-0.4c-25.7-6.9-46.6-20.8-62.5-42.3c-4.9-6.7-12.2-10.8-17.9-16.7
		c1.7,8.8,5.1,16.6,10.1,23.9c7.2,10.6,15.7,20.3,22.4,31.3c4.3,7,7.8,14.4,7.6,22.9c-0.1,3.1,1.7,4.4,4.2,5.5
		c7.8,3.3,15.8,5.1,24.3,5c2,0,4.2-0.7,7.1,1.3C357,791.3,346.3,790.6,335.8,785.6z M143,527.4c-0.3,0.8-0.6,1.5-0.8,2.3
		c-6.3,24-11.1,48.4-13.8,73.1c-1.1,9.7-3.1,19.4-1.4,29.3c3.1,17.7,8.5,34.6,16.3,50.7c0.5,1,1.2,2,1.8,3
		c-5.2-26.3-6.7-52.7-6.6-79.2C138.5,580.2,140.5,553.8,143,527.4z M160,418.8c5-11.5,12.2-22,15.9-34.1
		c7.2-23.6,15.1-46.9,23.9-69.9c0.9-2.3,1.7-4.6,2.5-6.9C176,340.2,161.7,377.1,160,418.8z M137.1,492.9
		c-9.4,20.2-16.2,87.2-12.2,122.5c0.5-2.4,0.9-3.8,1-5.2c3-30.7,8.8-60.9,17.9-90.4c0.4-1.3,0.9-2.5,0.5-3.9
		C141.9,508.2,139.5,500.7,137.1,492.9z M326.6,641.1c-0.4-1.7-0.5-2.5-0.8-3.3c-7.6-21.7-15.2-43.3-22.7-65c-0.7-1.9-1.6-3.7-3.1-5
		c-1.3-1.1-3.3-3.8-4.2-2c-1.5,2.8-7,2.2-5.4,7.4c3.1,10,6.5,19.9,10.8,29.5C307.4,616.5,315.1,629.4,326.6,641.1z M199.7,285.7
		c-36.6,38.4-65.3,80.5-64.7,136.5C142.7,370.1,168.1,326.5,199.7,285.7z M832.6,506.3c7.3-15.5,8.6-64.5,2.5-79.5
		c-2.8,12-5.5,23.9-8.2,35.9c-0.4,1.6-0.3,3.3-0.1,4.9c0.8,7.1,1.6,14.2,2.8,21.3C830.4,494.3,830.2,500,832.6,506.3z M369.3,876.9
		c3.8-6.5,6-13,7.3-19.8c0.9-5.1-0.7-6.6-5.7-5.2c-5.4,1.6-10.8,3.2-16.4,4.3c-4.1,0.8-9.5-2-12.3,1.9c-2.6,3.6-0.6,8.8-1.1,13.2
		c0,0.3,0,0.7,0,1c-0.2,3.5,1.1,3.8,3.8,2c3.7-2.5,7.5-4.9,11.7-6.6c3.4-1.4,5.9-1.3,7.7,2.6C365.3,872.5,367.3,874.3,369.3,876.9z
		 M344.1,723.2c-28.3-26.5-46-59.6-60.4-96.1c0.2,1.7,0.2,2.1,0.3,2.6c9.2,29.4,22,57,39.6,82.5
		C328.8,719.6,335.7,722.3,344.1,723.2z M210.7,802.2c11.7,22.7,37.8,38.4,61.7,29.4c-2.4-2.9-5.4-4.2-9-4.8
		c-10.3-1.5-19.9-5-29.3-9.5C225.7,813.2,217.8,808.5,210.7,802.2z M186.6,730.3c-0.2,27.3,16.9,45.5,32.9,64.3
		C211.3,771.7,199.9,750.7,186.6,730.3z M372.4,799.5c-7.9,2.1-15.9,3.6-23.9,4.6c-2.9,0.4-1.4,1.9-0.5,3
		c6.8,8.4,13.8,16.6,22.1,23.6c0.9,0.7,1.7,2.2,3.2,1.4C373.5,821.4,366.4,810.9,372.4,799.5z M162.7,657.8
		c1.9,27.7,14.5,74.3,23,85.5c-1.3-8.4-1.2-16.7-4-24C174.1,699.1,166.9,679,162.7,657.8z M213.2,773c7.6,20.6,17.8,38.8,41.3,44.7
		C238.1,805.2,226.3,788.5,213.2,773z M305.4,732.8c4.9,13.2,11.1,25.8,18,37.9c1.5,2.5,2.6,7.7,5.4,6.4c2.8-1.3,0.4-6.1-0.6-9.1
		C323.6,754.3,313.8,743.9,305.4,732.8z M329.6,147.5c-16.6,9.7-31.3,21.6-44.5,35.5c0.3,0.3,0.5,0.6,0.8,1
		C300.4,171.8,315,159.7,329.6,147.5z M376.5,845.9c-13.8-4.9-25.3-11.7-36.1-19.9C343.8,834.6,366.8,847.6,376.5,845.9z
		 M151.6,478.1c4.5-10.8,3.3-20.8,0-30.9C149.3,457.3,150.7,467.3,151.6,478.1z M160.4,439.8c3.2-11.9,6-22.7,8.9-33.4
		C164.9,416.7,156.6,426,160.4,439.8z"/>
</g>
</svg>
